<?xml version="1.0" encoding="UTF-8" standalone="no"?>
<svg width="127px" height="127px" viewBox="0 0 127 127" version="1.1" xmlns="http://www.w3.org/2000/svg" xmlns:xlink="http://www.w3.org/1999/xlink">
    <!-- Generator: Sketch 39.1 (31720) - http://www.bohemiancoding.com/sketch -->
    <title>instagram</title>
    <desc>Created with Sketch.</desc>
    <defs></defs>
    <g id="Symbols" stroke="none" stroke-width="1" fill="none" fill-rule="evenodd">
        <g id="instagram">
            <g id="Layer_1">
                <g>
                    <circle id="Oval" fill="#4C5359" cx="63.5" cy="63.5" r="63.5"></circle>
                    <g id="Group" transform="translate(27.037109, 27.037109)" fill="#2C3840">
                        <path d="M51.1539629,0.116085937 L21.7715703,0.116085937 C9.83059375,0.116085937 0.116085937,9.83059375 0.116085937,21.7715703 L0.116085937,51.1539629 C0.116085937,63.0944434 9.83059375,72.8096953 21.7718184,72.8096953 L51.1542109,72.8096953 C63.0946914,72.8096953 72.8099434,63.0949395 72.8099434,51.1539629 L72.8099434,21.7715703 C72.8096953,9.83059375 63.0949395,0.116085937 51.1539629,0.116085937 L51.1539629,0.116085937 L51.1539629,0.116085937 Z M65.4967773,51.1542109 C65.4967773,59.0753398 59.0753398,65.4967773 51.1542109,65.4967773 L21.7718184,65.4967773 C13.8506895,65.4967773 7.42925195,59.0753398 7.42925195,51.1542109 L7.42925195,21.7718184 C7.42925195,13.8506895 13.8506895,7.42900391 21.7718184,7.42900391 L51.1542109,7.42900391 C59.0753398,7.42900391 65.4967773,13.8509375 65.4967773,21.7718184 L65.4967773,51.1542109 L65.4967773,51.1542109 Z" id="Shape"></path>
                        <path d="M36.4628906,17.6614336 C26.0960195,17.6614336 17.6614336,26.0960195 17.6614336,36.4628906 C17.6614336,46.8290176 26.0960195,55.2636035 36.4628906,55.2636035 C46.8297617,55.2636035 55.2636035,46.8297617 55.2636035,36.4628906 C55.2636035,26.0960195 46.8297617,17.6614336 36.4628906,17.6614336 L36.4628906,17.6614336 L36.4628906,17.6614336 Z M36.4628906,47.9506855 C30.1180996,47.9506855 24.9743516,42.8079297 24.9743516,36.4628906 C24.9743516,30.1178516 30.1180996,24.9743516 36.4628906,24.9743516 C42.8076816,24.9743516 47.9506855,30.1176035 47.9506855,36.4628906 C47.9506855,42.8076816 42.8076816,47.9506855 36.4628906,47.9506855 L36.4628906,47.9506855 L36.4628906,47.9506855 Z" id="Shape"></path>
                    </g>
                    <g id="Group" transform="translate(77.251953, 40.037109)" fill="#2C3840">
                        <path d="M9.59000195,4.80331641 C9.59000195,7.29122656 7.57288477,9.3085918 5.08472656,9.3085918 C2.59681641,9.3085918 0.579451172,7.29122656 0.579451172,4.80331641 C0.579451172,2.3151582 2.59681641,0.298041016 5.08472656,0.298041016 C7.57338086,0.298041016 9.59000195,2.31466211 9.59000195,4.80331641 L9.59000195,4.80331641 L9.59000195,4.80331641 Z" id="Shape"></path>
                    </g>
                </g>
            </g>
        </g>
    </g>
</svg>