<?xml version="1.0" encoding="UTF-8" standalone="no"?>
<svg width="119px" height="51px" viewBox="0 0 119 51" version="1.1" xmlns="http://www.w3.org/2000/svg" xmlns:xlink="http://www.w3.org/1999/xlink">
    <!-- Generator: Sketch 39.1 (31720) - http://www.bohemiancoding.com/sketch -->
    <title>soundcloud</title>
    <desc>Created with Sketch.</desc>
    <defs></defs>
    <g id="Page-1" stroke="none" stroke-width="1" fill="none" fill-rule="evenodd">
        <g id="landing-page" transform="translate(-333.000000, -1500.000000)" fill="#FFFFFF">
            <g id="section-soundcloud" transform="translate(0.000000, 1432.000000)">
                <g id="cta" transform="translate(207.000000, 68.000000)">
                    <g id="soundcloud" transform="translate(126.000000, 0.000000)">
                        <g id="Layer_1">
                            <g id="Group">
                                <path d="M118.894016,36.0540781 C118.419875,29.1520781 112.750906,23.6063594 105.840672,23.2714063 C103.199828,23.143375 100.712516,23.7601563 98.5697187,24.9289063 C98.2841719,11.1841406 87.0607187,0.12803125 73.2476875,0.12803125 C69.5940156,0.12803125 66.123625,0.904453125 62.9873906,2.29765625 C62.3124375,2.59754688 61.8823906,3.27329688 61.8823906,4.012 L61.8823906,48.9204219 C61.8823906,49.9579531 62.723625,50.7991875 63.7611562,50.7991875 L105.155359,50.7991875 C113.083203,50.7989219 119.446516,44.100125 118.894016,36.0540781 L118.894016,36.0540781 Z" id="Shape"></path>
                                <path d="M58.2202187,3.03635937 C57.1755156,3.03635937 56.3289687,3.88317187 56.3289687,4.92760937 L56.3289687,48.8585312 C56.3289687,49.9032344 57.1757812,50.7497812 58.2202187,50.7497812 C59.2646562,50.7497812 60.1117344,49.9029687 60.1117344,48.8585312 L60.1117344,4.92760937 C60.1117344,3.88317187 59.2646562,3.03635937 58.2202187,3.03635937 L58.2202187,3.03635937 Z" id="Shape"></path>
                                <path d="M51.9615625,7.70817188 C50.9168594,7.70817188 50.0703125,8.55498438 50.0703125,9.59942188 L50.0703125,48.8585313 C50.0703125,49.9032344 50.917125,50.7497813 51.9615625,50.7497813 C53.006,50.7497813 53.8528125,49.9029688 53.8528125,48.8585313 L53.8528125,9.59942188 C53.8528125,8.55498438 53.006,7.70817188 51.9615625,7.70817188 L51.9615625,7.70817188 Z" id="Shape"></path>
                                <path d="M45.7026406,9.83689062 C44.6579375,9.83689062 43.8113906,10.6837031 43.8113906,11.7281406 L43.8113906,48.8585312 C43.8113906,49.9032344 44.6582031,50.7497812 45.7026406,50.7497812 C46.7473437,50.7497812 47.5938906,49.9029687 47.5938906,48.8585312 L47.5938906,11.7281406 C47.5941562,10.6834375 46.7473437,9.83689062 45.7026406,9.83689062 L45.7026406,9.83689062 Z" id="Shape"></path>
                                <path d="M39.4439844,6.9986875 C38.3992813,6.9986875 37.5527344,7.8455 37.5527344,8.8899375 L37.5527344,48.8585312 C37.5527344,49.9032344 38.3995469,50.7497812 39.4439844,50.7497812 C40.4884219,50.7497812 41.3352344,49.9029687 41.3352344,48.8585312 L41.3352344,8.8899375 C41.3352344,7.8455 40.4884219,6.9986875 39.4439844,6.9986875 L39.4439844,6.9986875 Z" id="Shape"></path>
                                <path d="M33.1850625,8.89073437 C32.1403594,8.89073437 31.2938125,9.73754687 31.2938125,10.7819844 L31.2938125,48.8585312 C31.2938125,49.9032344 32.140625,50.7497812 33.1850625,50.7497812 C34.2295,50.7497812 35.0763125,49.9029687 35.0763125,48.8585312 L35.0763125,10.7819844 C35.0763125,9.73754687 34.2297656,8.89073437 33.1850625,8.89073437 L33.1850625,8.89073437 Z" id="Shape"></path>
                                <path d="M26.9264062,12.6750938 C25.8817031,12.6750938 25.0351562,13.5219063 25.0351562,14.5663438 L25.0351562,48.8585313 C25.0351562,49.9032344 25.8819687,50.7497813 26.9264062,50.7497813 C27.9708438,50.7497813 28.8176562,49.9029688 28.8176562,48.8585313 L28.8176562,14.5663438 C28.8179219,13.5216406 27.9711094,12.6750938 26.9264062,12.6750938 L26.9264062,12.6750938 Z" id="Shape"></path>
                                <path d="M20.66775,20.006875 C19.6230469,20.006875 18.7765,20.8536875 18.7765,21.898125 L18.7765,48.8585313 C18.7765,49.9032344 19.6233125,50.7497813 20.66775,50.7497813 C21.7124531,50.7497813 22.559,49.9029688 22.559,48.8585313 L22.559,21.898125 C22.559,20.8536875 21.7121875,20.006875 20.66775,20.006875 L20.66775,20.006875 Z" id="Shape"></path>
                                <path d="M14.4088281,23.0814844 C13.364125,23.0814844 12.5175781,23.9282969 12.5175781,24.9727344 L12.5175781,48.8585312 C12.5175781,49.9032344 13.3643906,50.7497812 14.4088281,50.7497812 C15.4532656,50.7497812 16.3000781,49.9029687 16.3000781,48.8585312 L16.3000781,24.9727344 C16.3000781,23.9282969 15.4535312,23.0814844 14.4088281,23.0814844 L14.4088281,23.0814844 Z" id="Shape"></path>
                                <path d="M8.15017187,23.7869844 C7.10546875,23.7869844 6.25892187,24.6337969 6.25892187,25.6782344 L6.25892187,48.1530312 C6.25892187,49.1977344 7.10573437,50.0442812 8.15017187,50.0442812 C9.19460937,50.0442812 10.0414219,49.1974687 10.0414219,48.1530312 L10.0414219,25.6782344 C10.0414219,24.6337969 9.19460937,23.7869844 8.15017187,23.7869844 L8.15017187,23.7869844 Z" id="Shape"></path>
                                <path d="M1.89125,28.7254844 C0.846546875,28.7254844 0,29.5722969 0,30.6167344 L0,43.5675469 C0,44.61225 0.8468125,45.4587969 1.89125,45.4587969 C2.9356875,45.4587969 3.7825,44.6119844 3.7825,43.5675469 L3.7825,30.6167344 C3.7825,29.5720312 2.93595313,28.7254844 1.89125,28.7254844 L1.89125,28.7254844 Z" id="Shape"></path>
                            </g>
                        </g>
                    </g>
                </g>
            </g>
        </g>
    </g>
</svg>