<?xml version="1.0" encoding="UTF-8" standalone="no"?>
<svg width="120px" height="120px" viewBox="0 0 120 120" version="1.1" xmlns="http://www.w3.org/2000/svg" xmlns:xlink="http://www.w3.org/1999/xlink">
    <!-- Generator: Sketch 39.1 (31720) - http://www.bohemiancoding.com/sketch -->
    <title>soundcloud2</title>
    <desc>Created with Sketch.</desc>
    <defs></defs>
    <g id="Symbols" stroke="none" stroke-width="1" fill="none" fill-rule="evenodd">
        <g id="soundcloud2">
            <g id="Capa_1">
                <g>
                    <g id="Group">
                        <circle id="Oval" fill="#4C5359" cx="59.5730973" cy="59.5730973" r="59.5730973"></circle>
                        <path d="M17.7419469,73.0969912 C17.7132743,73.2902655 17.5752212,73.4283186 17.3957522,73.4283186 C17.2162832,73.4283186 17.0782301,73.2902655 17.0506195,73.0927434 L16.420885,68.379823 L17.0506195,63.5883186 C17.0771681,63.3886726 17.2152212,63.2506195 17.3957522,63.2506195 C17.5741593,63.2506195 17.7122124,63.3886726 17.7419469,63.5883186 L18.4916814,68.3851327 L17.7419469,73.0969912 L17.7419469,73.0969912 Z M20.9500885,75.96 C20.920354,76.1649558 20.7716814,76.3083186 20.5879646,76.3083186 C20.4095575,76.3083186 20.2534513,76.1649558 20.2290265,75.96 L19.3815929,68.3787611 L20.2290265,60.6276106 C20.2545133,60.4279646 20.4095575,60.279292 20.5879646,60.279292 C20.7716814,60.279292 20.920354,60.4247788 20.9500885,60.6276106 L21.9143363,68.3787611 L20.9500885,75.96 L20.9500885,75.96 Z M24.4120354,77.2438938 C24.3876106,77.4902655 24.2028319,77.6654867 23.980885,77.6654867 C23.7515044,77.6654867 23.5699115,77.4902655 23.5476106,77.2438938 L22.7437168,68.3851327 L23.5476106,59.1897345 C23.5677876,58.940177 23.7515044,58.7617699 23.980885,58.7617699 C24.2028319,58.7617699 24.3865487,58.940177 24.4120354,59.1897345 L25.3242478,68.3851327 L24.4120354,77.2438938 L24.4120354,77.2438938 Z M27.9079646,77.5253097 C27.8824779,77.8077876 27.6615929,78.0212389 27.399292,78.0212389 C27.1306195,78.0212389 26.9107965,77.8077876 26.8884956,77.5253097 L26.1292035,68.3851327 L26.8884956,58.9369912 C26.9107965,58.6523894 27.1306195,58.4389381 27.399292,58.4389381 C27.6615929,58.4389381 27.8824779,58.6523894 27.9079646,58.9369912 L28.7692035,68.3851327 L27.9079646,77.5253097 L27.9079646,77.5253097 Z M31.4230088,77.5985841 C31.4049558,77.9267257 31.1490265,78.1699115 30.8463717,78.1699115 C30.5341593,78.1699115 30.2867257,77.9267257 30.2654867,77.5985841 L29.5476106,68.3840708 L30.2654867,59.6187611 C30.2877876,59.2927434 30.5341593,59.0495575 30.8463717,59.0495575 C31.1543363,59.0495575 31.4049558,59.2927434 31.4230088,59.6145133 L32.2364602,68.3840708 L31.4230088,77.5985841 L31.4230088,77.5985841 Z M34.9720354,77.6038938 L34.9720354,77.5985841 C34.9507965,77.9617699 34.6630088,78.2484956 34.3168142,78.2484956 C33.9695575,78.2484956 33.6817699,77.960708 33.6615929,77.6038938 L32.9915044,68.3893805 L33.6615929,54.1284956 C33.6817699,53.7653097 33.9695575,53.4785841 34.3168142,53.4785841 C34.6640708,53.4785841 34.9518584,53.7663717 34.9720354,54.1231858 L35.7313274,68.3893805 L34.9720354,77.6038938 L34.9720354,77.6038938 Z M38.4945133,77.5985841 L38.4945133,77.5932743 C38.4732743,77.9946903 38.1557522,78.3143363 37.7628319,78.3143363 C37.3773451,78.3143363 37.0587611,77.9946903 37.039646,77.5932743 L36.4067257,68.4382301 L37.039646,50.9150442 C37.0587611,50.5136283 37.3773451,50.1961062 37.7628319,50.1961062 C38.1557522,50.1961062 38.4732743,50.5136283 38.4945133,50.9150442 L39.2070796,68.4382301 L38.4945133,77.5985841 L38.4945133,77.5985841 Z M42.1486726,77.4573451 L42.1486726,77.4520354 C42.1327434,77.899115 41.7812389,78.2463717 41.3490265,78.2463717 C40.9168142,78.2463717 40.5653097,77.899115 40.5493805,77.4573451 L39.9621239,68.3957522 C39.9621239,68.3957522 40.5493805,49.4123894 40.5493805,49.4070796 C40.5663717,48.9653097 40.9168142,48.6116814 41.3490265,48.6116814 C41.7812389,48.6116814 42.1338053,48.9653097 42.1486726,49.4070796 L42.8123894,68.3957522 L42.1486726,77.4573451 L42.1486726,77.4573451 Z M45.7815929,77.3968142 C45.7646018,77.8831858 45.3833628,78.2644248 44.9086726,78.2644248 C44.4329204,78.2644248 44.0516814,77.8831858 44.0346903,77.4010619 L43.4867257,68.3936283 L44.0346903,48.7709735 C44.0516814,48.2824779 44.4329204,47.9023009 44.9086726,47.9023009 C45.3833628,47.9023009 45.7656637,48.2824779 45.7815929,48.7709735 L46.3900885,68.3936283 L45.7815929,77.3968142 L45.7815929,77.3968142 Z M49.4378761,77.3171681 L49.4378761,77.3118584 C49.420885,77.8375221 49.0099115,78.2548673 48.4884956,78.2548673 C47.9745133,78.2548673 47.5550442,77.8375221 47.5454867,77.3171681 L47.0421239,68.3957522 L47.540177,49.2743363 C47.5550442,48.7412389 47.9734513,48.3292035 48.4884956,48.3292035 C49.0099115,48.3292035 49.420885,48.7412389 49.4378761,49.2743363 L50.0028319,68.3957522 L49.4378761,77.3171681 L49.4378761,77.3171681 Z M53.1238938,77.2640708 L53.1238938,77.2566372 C53.1153982,77.8290265 52.6630088,78.2697345 52.1044248,78.2697345 C51.5415929,78.2697345 51.0955752,77.8290265 51.0785841,77.2640708 L50.6240708,68.3946903 L51.079646,49.9730973 C51.0966372,49.4017699 51.5426549,48.9546903 52.1054867,48.9546903 C52.6640708,48.9546903 53.1164602,49.4017699 53.1249558,49.9730973 L53.64,68.4 L53.1238938,77.2640708 L53.1238938,77.2640708 Z M56.8842478,76.3284956 L56.8385841,77.1971681 C56.8332743,77.499823 56.7058407,77.7738053 56.5115044,77.9713274 C56.3118584,78.1656637 56.0378761,78.2899115 55.7479646,78.2899115 C55.4102655,78.2899115 55.1129204,78.1348673 54.9090265,77.8906195 C54.7582301,77.7132743 54.6647788,77.4838938 54.6541593,77.2428319 C54.6509735,77.2322124 54.6509735,77.2184071 54.6509735,77.2035398 C54.6509735,77.2035398 54.2315044,68.4042478 54.2315044,68.3893805 L54.6456637,46.68 L54.6509735,46.4718584 C54.6541593,46.0916814 54.8559292,45.7529204 55.1575221,45.5585841 C55.3263717,45.4460177 55.5260177,45.380177 55.7490265,45.380177 C55.9677876,45.380177 56.1748673,45.4481416 56.3479646,45.5681416 C56.6421239,45.7646018 56.8343363,46.0948673 56.839646,46.4729204 L57.300531,68.4 L56.8842478,76.3284956 L56.8842478,76.3284956 Z M60.5384071,77.0835398 L60.5384071,77.0729204 C60.5309735,77.7143363 60.0053097,78.2368142 59.3702655,78.2368142 C58.7330973,78.2368142 58.2084956,77.7143363 58.2021239,77.0782301 L57.9610619,72.7985841 L57.7242478,68.4042478 L58.2021239,44.6102655 L58.2021239,44.4902655 C58.2031858,44.1292035 58.3730973,43.8063717 58.6353982,43.5886726 C58.8361062,43.4240708 59.0941593,43.3242478 59.3702655,43.3242478 C59.5900885,43.3242478 59.7939823,43.3847788 59.9681416,43.4867257 C60.300531,43.6948673 60.5330973,44.0633628 60.5437168,44.4849558 L61.060885,68.4031858 L60.5384071,77.0835398 L60.5384071,77.0835398 Z M92.1132743,78.260177 L62.6846018,78.260177 C62.0495575,78.1953982 61.5472566,77.6899115 61.5366372,77.0389381 L61.5366372,43.3497345 C61.5472566,42.7295575 61.760708,42.4099115 62.559292,42.1030088 C64.620531,41.3044248 66.9546903,40.8329204 69.3536283,40.8329204 C79.139469,40.8329204 87.1582301,48.339823 88.0088496,57.9026549 C89.2683186,57.3769912 90.659469,57.0775221 92.1132743,57.0775221 C97.9730973,57.0775221 102.724248,61.8307965 102.724248,67.6948673 C102.724248,73.5578761 97.9730973,78.260177 92.1132743,78.260177 L92.1132743,78.260177 L92.1132743,78.260177 Z" id="Shape" fill="#2C3840"></path>
                    </g>
                </g>
            </g>
        </g>
    </g>
</svg>