<?xml version="1.0" encoding="UTF-8" standalone="no"?>
<svg width="127px" height="127px" viewBox="0 0 127 127" version="1.1" xmlns="http://www.w3.org/2000/svg" xmlns:xlink="http://www.w3.org/1999/xlink">
    <!-- Generator: Sketch 39.1 (31720) - http://www.bohemiancoding.com/sketch -->
    <title>youtube</title>
    <desc>Created with Sketch.</desc>
    <defs></defs>
    <g id="Symbols" stroke="none" stroke-width="1" fill="none" fill-rule="evenodd">
        <g id="youtube">
            <g id="Layer_1">
                <g>
                    <circle id="Oval" fill="#4C5359" cx="63.5" cy="63.5" r="63.5"></circle>
                    <path d="M84.7449668,37.7857246 L42.2550332,37.7857246 C33.9186738,37.7857246 27.1608848,44.5437617 27.1608848,52.879873 L27.1608848,74.120623 C27.1608848,82.4569824 33.9189219,89.2147715 42.2550332,89.2147715 L84.7449668,89.2147715 C93.0813262,89.2147715 99.8391152,82.4567344 99.8391152,74.120623 L99.8391152,52.879873 C99.8391152,44.5437617 93.0810781,37.7857246 84.7449668,37.7857246 L84.7449668,37.7857246 L84.7449668,37.7857246 Z M74.5365977,64.5336113 L54.663082,74.0119785 C54.1332539,74.2647383 53.5213223,73.8790254 53.5213223,73.2923945 L53.5213223,53.7428281 C53.5213223,53.1475156 54.149377,52.7618027 54.6797012,53.0309336 L74.5532168,63.1018848 C75.1450566,63.4012773 75.1343906,64.2488535 74.5365977,64.5336113 L74.5365977,64.5336113 L74.5365977,64.5336113 Z" id="Shape" fill="#2C3840"></path>
                </g>
            </g>
        </g>
    </g>
</svg>